<?xml version="1.0" encoding="UTF-8" standalone="no"?>
<!DOCTYPE svg PUBLIC "-//W3C//DTD SVG 1.1//EN"
 "http://www.w3.org/Graphics/SVG/1.1/DTD/svg11.dtd">
<!-- Generated by graphviz version 2.50.0 (0)
 -->
<!-- Title: dgp Pages: 1 -->
<svg width="627pt" height="188pt"
 viewBox="0.00 0.00 626.94 188.00" xmlns="http://www.w3.org/2000/svg" xmlns:xlink="http://www.w3.org/1999/xlink">
<g id="graph0" class="graph" transform="scale(1 1) rotate(0) translate(4 184)">
<title>dgp</title>
<polygon fill="white" stroke="transparent" points="-4,4 -4,-184 622.94,-184 622.94,4 -4,4"/>
<!-- age -->
<g id="node1" class="node">
<title>age</title>
<ellipse fill="none" stroke="black" cx="320.99" cy="-162" rx="27" ry="18"/>
<text text-anchor="middle" x="320.99" y="-158.3" font-family="Times,serif" font-size="14.00">Age</text>
</g>
<!-- phil_books -->
<g id="node2" class="node">
<title>phil_books</title>
<ellipse fill="none" stroke="black" cx="77.99" cy="-90" rx="77.99" ry="18"/>
<text text-anchor="middle" x="77.99" y="-86.3" font-family="Times,serif" font-size="14.00">#Philosophy books</text>
</g>
<!-- age&#45;&gt;phil_books -->
<g id="edge1" class="edge">
<title>age&#45;&gt;phil_books</title>
<path fill="none" stroke="black" d="M296.36,-153.9C258.69,-143.05 185.77,-122.05 134.6,-107.31"/>
<polygon fill="black" stroke="black" points="135.25,-103.85 124.67,-104.45 133.31,-110.58 135.25,-103.85"/>
</g>
<!-- education -->
<g id="node4" class="node">
<title>education</title>
<ellipse fill="none" stroke="black" cx="219.99" cy="-90" rx="46.29" ry="18"/>
<text text-anchor="middle" x="219.99" y="-86.3" font-family="Times,serif" font-size="14.00">Education</text>
</g>
<!-- age&#45;&gt;education -->
<g id="edge2" class="edge">
<title>age&#45;&gt;education</title>
<path fill="none" stroke="black" d="M302.94,-148.49C288.34,-138.37 267.48,-123.92 250.34,-112.03"/>
<polygon fill="black" stroke="black" points="251.97,-108.91 241.76,-106.09 247.98,-114.66 251.97,-108.91"/>
</g>
<!-- atheist -->
<g id="node5" class="node">
<title>atheist</title>
<ellipse fill="none" stroke="black" cx="320.99" cy="-90" rx="36.29" ry="18"/>
<text text-anchor="middle" x="320.99" y="-86.3" font-family="Times,serif" font-size="14.00">Atheist</text>
</g>
<!-- age&#45;&gt;atheist -->
<g id="edge3" class="edge">
<title>age&#45;&gt;atheist</title>
<path fill="none" stroke="black" d="M320.99,-143.7C320.99,-135.98 320.99,-126.71 320.99,-118.11"/>
<polygon fill="black" stroke="black" points="324.49,-118.1 320.99,-108.1 317.49,-118.1 324.49,-118.1"/>
</g>
<!-- pill -->
<g id="node6" class="node">
<title>pill</title>
<ellipse fill="none" stroke="black" stroke-dasharray="1,5" cx="401.99" cy="-90" rx="27" ry="18"/>
<text text-anchor="middle" x="401.99" y="-86.3" font-family="Times,serif" font-size="14.00">Pill</text>
</g>
<!-- age&#45;&gt;pill -->
<g id="edge4" class="edge">
<title>age&#45;&gt;pill</title>
<path fill="none" stroke="black" d="M337,-147.17C348.76,-137.01 364.93,-123.03 378.2,-111.56"/>
<polygon fill="black" stroke="black" points="380.75,-113.99 386.02,-104.8 376.17,-108.69 380.75,-113.99"/>
</g>
<!-- happiness -->
<g id="node7" class="node">
<title>happiness</title>
<ellipse fill="none" stroke="black" cx="360.99" cy="-18" rx="47.39" ry="18"/>
<text text-anchor="middle" x="360.99" y="-14.3" font-family="Times,serif" font-size="14.00">Happiness</text>
</g>
<!-- age&#45;&gt;happiness -->
<g id="edge5" class="edge">
<title>age&#45;&gt;happiness</title>
<path fill="none" stroke="black" d="M347.28,-157.39C375.21,-152 418.05,-138.92 437.99,-108 446.66,-94.55 445.44,-86.16 437.99,-72 429.99,-56.77 415.41,-45.07 401.08,-36.58"/>
<polygon fill="black" stroke="black" points="402.69,-33.47 392.24,-31.71 399.31,-39.6 402.69,-33.47"/>
</g>
<!-- phil_books&#45;&gt;happiness -->
<g id="edge6" class="edge">
<title>phil_books&#45;&gt;happiness</title>
<path fill="none" stroke="black" d="M129.24,-76.32C181.36,-63.43 261.51,-43.61 312.58,-30.98"/>
<polygon fill="black" stroke="black" points="313.52,-34.35 322.39,-28.55 311.84,-27.55 313.52,-34.35"/>
</g>
<!-- personality -->
<g id="node3" class="node">
<title>personality</title>
<ellipse fill="none" stroke="black" cx="551.99" cy="-90" rx="66.89" ry="18"/>
<text text-anchor="middle" x="551.99" y="-86.3" font-family="Times,serif" font-size="14.00">Personality trait</text>
</g>
<!-- personality&#45;&gt;happiness -->
<g id="edge7" class="edge">
<title>personality&#45;&gt;happiness</title>
<path fill="none" stroke="black" d="M513.8,-75C481.9,-63.31 436.45,-46.65 403.42,-34.55"/>
<polygon fill="black" stroke="black" points="404.62,-31.26 394.02,-31.11 402.21,-37.83 404.62,-31.26"/>
</g>
<!-- education&#45;&gt;happiness -->
<g id="edge8" class="edge">
<title>education&#45;&gt;happiness</title>
<path fill="none" stroke="black" d="M247.51,-75.34C269.31,-64.52 299.96,-49.3 323.91,-37.41"/>
<polygon fill="black" stroke="black" points="325.66,-40.45 333.06,-32.87 322.55,-34.18 325.66,-40.45"/>
</g>
<!-- atheist&#45;&gt;happiness -->
<g id="edge9" class="edge">
<title>atheist&#45;&gt;happiness</title>
<path fill="none" stroke="black" d="M330.47,-72.41C335.19,-64.16 340.99,-54.01 346.26,-44.78"/>
<polygon fill="black" stroke="black" points="349.38,-46.38 351.3,-35.96 343.3,-42.9 349.38,-46.38"/>
</g>
<!-- pill&#45;&gt;happiness -->
<g id="edge10" class="edge">
<title>pill&#45;&gt;happiness</title>
<path fill="none" stroke="black" d="M392.48,-72.76C387.54,-64.32 381.38,-53.8 375.82,-44.31"/>
<polygon fill="black" stroke="black" points="378.81,-42.49 370.74,-35.63 372.77,-46.03 378.81,-42.49"/>
</g>
</g>
</svg>
